<?xml version="1.0" standalone="no"?>
<!DOCTYPE svg PUBLIC "-//W3C//DTD SVG 20010904//EN"
 "http://www.w3.org/TR/2001/REC-SVG-20010904/DTD/svg10.dtd">
<svg version="1.0" xmlns="http://www.w3.org/2000/svg"
 width="253.000000pt" height="253.000000pt" viewBox="0 0 253.000000 253.000000"
 preserveAspectRatio="xMidYMid meet">
<metadata>
Created by potrace 1.11, written by Peter Selinger 2001-2013
</metadata>
<g transform="translate(0.000000,253.000000) scale(0.100000,-0.100000)"
fill="#000000" stroke="none">
<path d="M795 2200 c-207 -37 -365 -119 -511 -264 -250 -251 -342 -618 -237
-951 151 -478 639 -758 1123 -644 90 21 95 21 164 5 149 -35 271 -40 411 -16
290 51 547 245 683 515 267 532 -32 1185 -614 1340 -153 41 -397 37 -507 -8
-28 -12 -41 -12 -97 3 -143 39 -272 45 -415 20z"/>
</g>
</svg>
